<?xml version="1.0" encoding="UTF-8"?><svg id="_レイヤー_2" xmlns="http://www.w3.org/2000/svg" viewBox="0 0 72.52 85.7"><defs><style>.cls-1{stroke-width:.72px;}.cls-1,.cls-2,.cls-3,.cls-4,.cls-5,.cls-6,.cls-7,.cls-8{stroke:#231815;stroke-linecap:round;stroke-linejoin:round;}.cls-1,.cls-7{fill:none;}.cls-2{fill:#30bcee;}.cls-2,.cls-3,.cls-5,.cls-6,.cls-7{stroke-width:1.23px;}.cls-3,.cls-9{fill:#e50012;}.cls-10,.cls-8{fill:#fff;}.cls-11{fill:#231815;}.cls-4{stroke-width:1.23px;}.cls-4,.cls-5{fill:#f6c9dd;}.cls-6{fill:#005bab;}.cls-8{stroke-width:.74px;}</style></defs><g id="_レイヤー_2-2"><path class="cls-5" d="m55.85,24.96c-.86,1.7-2.36,2.15-2.36,2.15,10.96,8.64,7.67,21.36,10.05,22.54,1.36.68,3.55-3.46,3.87-8.89.24-3.92-.91-7.98-.91-7.98,0,0,4.51,4.78,5.28,3.81.77-.97-1.75-11.45-11.88-14.86-.45-.15-2.97.53-3.69.62,0,0,.24,1.43-.36,2.61Z"/><path class="cls-5" d="m16.67,24.96c.87,1.7,2.36,2.15,2.36,2.15-10.96,8.64-7.67,21.36-10.04,22.54-1.37.68-3.55-3.46-3.88-8.89-.24-3.92.91-7.98.91-7.98,0,0-4.51,4.78-5.28,3.81-.77-.97,1.75-11.45,11.88-14.86.45-.15,2.97.53,3.69.62,0,0-.25,1.43.35,2.61Z"/><path class="cls-5" d="m19.16,85.09c-2.84,0-5.19-.65-6.61-1.83-1.21-1.01-1.46-2.5-1.45-3.57.01-2.49,1.35-5.31,3.25-6.86,2.78-2.27,6.55-2.75,9.99-2.51,2.7.19,6.68.36,8.68,2.46.93.98,1.47,2.99,1.08,4.32-.68,2.28-3.17,4.61-6.67,6.21-2.47,1.13-5.49,1.78-8.28,1.78Z"/><path class="cls-5" d="m7.1,36.59c-2.08,0-3.78,1.01-4.53,2.69-.87,1.95-.28,4.35,1.59,6.43,4.7,5.24,15.34,12.1,17.74,10.39,2.39-1.71-1.79-12.38-9.43-17.61-1.82-1.25-3.68-1.91-5.36-1.91h0Z"/><path class="cls-5" d="m53.86,85.09c2.84,0,5.19-.65,6.61-1.83,1.21-1.01,1.46-2.5,1.45-3.57-.01-2.49-1.35-5.31-3.25-6.86-2.78-2.27-6.55-2.75-9.99-2.51-2.7.19-6.68.36-8.68,2.46-.93.98-1.47,2.99-1.08,4.32.68,2.28,3.17,4.61,6.66,6.21,2.47,1.13,5.49,1.78,8.28,1.78Z"/><path class="cls-5" d="m65.92,66.55c2.08,0,3.78-1.01,4.53-2.69.87-1.95.28-4.35-1.58-6.43-4.7-5.23-15.35-12.1-17.74-10.39-2.39,1.71,1.79,12.38,9.43,17.61,1.83,1.25,3.68,1.91,5.36,1.91h0Z"/><path class="cls-6" d="m51.16,45.89c-1.75-2.72-28.06-2.72-29.81,0-3.3,5.13-4.43,13.94-3.88,18.35.8,6.37,5.48,12.01,18.75,12.04h.07c13.28-.02,17.95-5.67,18.75-12.04.56-4.42-.57-13.23-3.88-18.35Z"/><path class="cls-4" d="m36.26,9c-14.93,0-22.9,9.69-22.9,21.65,0,7.39,2.18,13.92,8.2,17.82,4.15,1.16,9.05,1.81,14.71,1.81s10.56-.65,14.71-1.81c6.02-3.9,8.2-10.43,8.2-17.82,0-11.96-7.97-21.65-22.91-21.65Z"/><path class="cls-2" d="m40.44,3.98c-.55-2.21-1.79-3.26-3.72-3.36-1.92-.1-3.32.79-4.11,2.93,1.2-.42,2.53.9,3.95.98,1.41.08,2.74-1.1,3.88-.55Z"/><path class="cls-2" d="m58.12,20.53c-.21-8.65-7.86-16.16-20.85-17.21-15.44-1.25-22.01,9.24-23.02,17.61,6.64.04,14.11.22,22.12.76,8.54.58,16.92,1.96,22.54,3.35,4.18.69,11.14,2.6,11.4,1.7.41-1.39-5.41-3.76-12.2-6.21Z"/><line class="cls-1" x1="48.43" y1="11.25" x2="55.18" y2="12.19"/><polyline class="cls-1" points="49.43 11.46 50.38 17.17 52.42 11.78"/><path class="cls-1" d="m53.33,11.85l-.64,5.82"/><path class="cls-1" d="m54.42,12.07l-.65,5.82"/><line class="cls-1" x1="48.14" y1="17.06" x2="54.52" y2="18.01"/><path class="cls-8" d="m43.74,54.44s-2.83,7.52-3.27,10.58c-.44,3.05-.44,4.9-.44,4.9h-5.13l4.25-12.86s-.87.11-3.16.11-3.6-.44-3.6-.44l.54,3.92-3.6.44s.76-.65.22-3.05c-.55-2.4-.98-3.49-.98-3.49l15.15-.11Z"/><path class="cls-3" d="m64.8,26.08c.04,1.66-1.29,3.04-2.95,3.07-1.67.03-3.04-1.29-3.07-2.95-.03-1.66,1.29-3.04,2.96-3.07,1.66-.03,3.04,1.29,3.07,2.96h0Z"/><path class="cls-10" d="m61.77,26.18c.01.64-.49,1.16-1.13,1.18-.64.01-1.16-.49-1.18-1.13-.01-.64.5-1.16,1.13-1.17.64-.01,1.16.49,1.17,1.13h0Z"/><path class="cls-3" d="m8.33,21.9c-.03,1.66,1.29,3.04,2.95,3.07,1.67.03,3.04-1.29,3.07-2.95.03-1.66-1.29-3.04-2.95-3.07-1.66-.03-3.04,1.29-3.07,2.95h0Z"/><path class="cls-10" d="m9.28,21.18c-.01.64.49,1.17,1.13,1.18.64.01,1.17-.5,1.18-1.13.02-.64-.49-1.16-1.13-1.17-.64-.01-1.16.49-1.17,1.12h0Z"/><path class="cls-9" d="m23.19,41.3c.02,1.07-.84,1.96-1.91,1.98-1.07.02-1.96-.83-1.98-1.91-.02-1.07.84-1.96,1.91-1.98,1.07-.02,1.96.83,1.98,1.91h0Z"/><path class="cls-11" d="m26.44,25.33l-1.46.14c-.3.02-.51.29-.48.58s.29.51.58.48l1.47-.14c.29-.03.51-.29.48-.59-.03-.29-.29-.5-.58-.48Z"/><path class="cls-11" d="m46.23,25.65c-.02.27.17.51.44.54l1.72.18c.27.03.52-.17.55-.44.02-.27-.17-.51-.45-.55l-1.72-.17c-.27-.03-.52.17-.55.44Z"/><path class="cls-9" d="m49.38,41.3c-.02,1.07.84,1.96,1.91,1.98,1.08.02,1.96-.83,1.98-1.91.02-1.07-.83-1.96-1.91-1.98-1.07-.02-1.96.83-1.98,1.91h0Z"/><path class="cls-7" d="m44.24,37.22c-.34,1.47-1.71,2.46-3.54,1.89-1.84-.56-2.9-1.18-4.48-1.18s-2.65.62-4.48,1.18c-1.83.56-3.2-.43-3.54-1.89"/><path class="cls-7" d="m40.55,39.11c0,2.31-1.38,7.52-4.28,7.52s-4.53-5.21-4.53-7.52"/><path class="cls-11" d="m20,33.62l5.67-.67c-1.46,1.05-3.68,2.67-3.68,2.67-.18.13-.27.33-.26.53,0,.13.04.26.12.37.21.29.62.35.91.14l5.33-3.87c.19-.14.29-.36.26-.6s-.17-.43-.38-.53l-.43-.19s-.02-.02-.04-.02l-6.5-2.92c-.32-.15-.71,0-.85.33-.04.09-.06.19-.05.28,0,.24.15.48.38.58,0,0,2.56,1.15,4.44,1.99l-5.07.6c-.36.04-.61.36-.57.72.04.36.36.62.72.57Z"/><path class="cls-11" d="m52.32,33.62l-5.67-.67c1.46,1.05,3.68,2.67,3.68,2.67.18.13.27.33.26.53,0,.13-.04.26-.12.37-.21.29-.62.35-.91.14l-5.33-3.87c-.19-.14-.29-.36-.26-.6.02-.23.17-.43.38-.53l.42-.19s.02-.02.04-.02l6.5-2.92c.32-.15.71,0,.85.33.04.09.06.19.06.28,0,.24-.15.48-.38.58,0,0-2.56,1.15-4.44,1.99l5.07.6c.36.04.61.36.57.72-.04.36-.36.62-.72.57Z"/></g></svg>